<mxfile host="app.diagrams.net" modified="2022-03-29T21:20:28.683Z" agent="5.0 (Windows NT 10.0; Win64; x64) AppleWebKit/537.36 (KHTML, like Gecko) Chrome/99.0.4844.84 Safari/537.36" etag="qfly7BW-H0C9ARlCPFKF" version="17.2.5" type="github">
  <diagram id="BloK7KgIiPIShck0txBu" name="Page-1">
    <mxGraphModel dx="1550" dy="914" grid="1" gridSize="10" guides="1" tooltips="1" connect="1" arrows="1" fold="1" page="1" pageScale="1" pageWidth="1654" pageHeight="2336" math="0" shadow="0">
      <root>
        <mxCell id="0" />
        <mxCell id="1" parent="0" />
        <mxCell id="Rtryp6twmH3HQ59ZCYGV-2" style="edgeStyle=orthogonalEdgeStyle;rounded=0;orthogonalLoop=1;jettySize=auto;html=1;" edge="1" parent="1" source="Rtryp6twmH3HQ59ZCYGV-1">
          <mxGeometry relative="1" as="geometry">
            <mxPoint x="160" y="200" as="targetPoint" />
          </mxGeometry>
        </mxCell>
        <UserObject label="&lt;font style=&quot;font-size: 14px&quot;&gt;Isy.Services.Api&lt;/font&gt;" link="Isy.Services.Api" id="Rtryp6twmH3HQ59ZCYGV-1">
          <mxCell style="rounded=1;whiteSpace=wrap;html=1;" vertex="1" parent="1">
            <mxGeometry x="90" y="50" width="140" height="50" as="geometry" />
          </mxCell>
        </UserObject>
      </root>
    </mxGraphModel>
  </diagram>
</mxfile>
